<?xml version="1.0" encoding="utf-8"?>
<!-- Generator: Adobe Illustrator 25.2.3, SVG Export Plug-In . SVG Version: 6.00 Build 0)  -->
<svg version="1.1" id="Layer_1" xmlns="http://www.w3.org/2000/svg" xmlns:xlink="http://www.w3.org/1999/xlink" x="0px" y="0px"
	 viewBox="0 0 30 30" style="enable-background:new 0 0 30 30;" xml:space="preserve">
<style type="text/css">
	.st0{fill:#FFFFFF;}
</style>
<g>
	<path class="st0" d="M15,2.7c4.01,0,4.48,0.02,6.06,0.09c1.46,0.07,2.26,0.31,2.79,0.52c0.7,0.27,1.2,0.6,1.72,1.12
		c0.52,0.52,0.85,1.02,1.12,1.72c0.21,0.53,0.45,1.32,0.52,2.79c0.07,1.58,0.09,2.06,0.09,6.06s-0.02,4.48-0.09,6.06
		c-0.07,1.46-0.31,2.26-0.52,2.79c-0.27,0.7-0.6,1.2-1.12,1.72c-0.52,0.52-1.02,0.85-1.72,1.12c-0.53,0.21-1.32,0.45-2.79,0.52
		c-1.58,0.07-2.06,0.09-6.06,0.09s-4.48-0.02-6.06-0.09c-1.46-0.07-2.26-0.31-2.79-0.52c-0.7-0.27-1.2-0.6-1.72-1.12
		c-0.52-0.52-0.85-1.02-1.12-1.72c-0.21-0.53-0.45-1.32-0.52-2.79C2.72,19.48,2.7,19.01,2.7,15s0.02-4.48,0.09-6.06
		C2.86,7.48,3.1,6.68,3.31,6.15c0.27-0.7,0.6-1.2,1.12-1.72C4.95,3.9,5.45,3.58,6.15,3.31C6.68,3.1,7.48,2.86,8.94,2.79
		C10.52,2.72,10.99,2.7,15,2.7 M15,0c-4.07,0-4.58,0.02-6.18,0.09c-1.6,0.07-2.69,0.33-3.64,0.7c-0.99,0.38-1.82,0.9-2.66,1.73
		C1.68,3.35,1.17,4.19,0.79,5.17c-0.37,0.95-0.62,2.04-0.7,3.64C0.02,10.42,0,10.93,0,15c0,4.07,0.02,4.58,0.09,6.18
		c0.07,1.6,0.33,2.69,0.7,3.64c0.38,0.99,0.9,1.82,1.73,2.66c0.83,0.83,1.67,1.35,2.66,1.73c0.95,0.37,2.04,0.62,3.64,0.7
		C10.42,29.98,10.93,30,15,30s4.58-0.02,6.18-0.09c1.6-0.07,2.69-0.33,3.64-0.7c0.99-0.38,1.82-0.9,2.66-1.73
		c0.83-0.83,1.35-1.67,1.73-2.66c0.37-0.95,0.62-2.04,0.7-3.64C29.98,19.58,30,19.07,30,15s-0.02-4.58-0.09-6.18
		c-0.07-1.6-0.33-2.69-0.7-3.64c-0.38-0.99-0.9-1.82-1.73-2.66c-0.83-0.83-1.67-1.35-2.66-1.73c-0.95-0.37-2.04-0.62-3.64-0.7
		C19.58,0.02,19.07,0,15,0L15,0z"/>
	<path class="st0" d="M15,7.3c-4.25,0-7.7,3.45-7.7,7.7s3.45,7.7,7.7,7.7s7.7-3.45,7.7-7.7S19.25,7.3,15,7.3z M15,20
		c-2.76,0-5-2.24-5-5c0-2.76,2.24-5,5-5c2.76,0,5,2.24,5,5C20,17.76,17.76,20,15,20z"/>
	<circle class="st0" cx="23.01" cy="6.99" r="1.8"/>
</g>
</svg>
