<?xml version="1.0" encoding="utf-8"?>
<!-- Generator: Adobe Illustrator 25.2.3, SVG Export Plug-In . SVG Version: 6.00 Build 0)  -->
<svg version="1.1" id="Layer_1" xmlns="http://www.w3.org/2000/svg" xmlns:xlink="http://www.w3.org/1999/xlink" x="0px" y="0px"
	 viewBox="0 0 30 30" style="enable-background:new 0 0 30 30;" xml:space="preserve">
<style type="text/css">
	.st0{fill:#FFFFFF;}
</style>
<g>
	<path class="st0" d="M15,0C6.72,0,0,6.72,0,15s6.72,15,15,15s15-6.72,15-15S23.28,0,15,0z M22.53,12.16
		c0.01,0.16,0.01,0.31,0.01,0.47c0,4.78-3.64,10.29-10.29,10.29c-2.04,0-3.94-0.6-5.54-1.62c0.28,0.03,0.57,0.05,0.86,0.05
		c1.69,0,3.25-0.58,4.49-1.55c-1.58-0.03-2.92-1.07-3.38-2.51c0.22,0.04,0.45,0.07,0.68,0.07c0.33,0,0.65-0.04,0.95-0.13
		c-1.65-0.33-2.9-1.79-2.9-3.55c0-0.02,0-0.03,0-0.05c0.49,0.27,1.04,0.43,1.64,0.45c-0.97-0.65-1.61-1.76-1.61-3.01
		c0-0.66,0.18-1.28,0.49-1.82c1.78,2.19,4.45,3.63,7.45,3.78c-0.06-0.26-0.09-0.54-0.09-0.82c0-2,1.62-3.62,3.62-3.62
		c1.04,0,1.98,0.44,2.64,1.14c0.82-0.16,1.6-0.46,2.3-0.88c-0.27,0.84-0.84,1.55-1.59,2c0.73-0.09,1.43-0.28,2.08-0.57
		C23.85,11.01,23.24,11.65,22.53,12.16z"/>
</g>
</svg>
