<?xml version="1.0" encoding="utf-8"?>
<!-- Generator: Adobe Illustrator 25.2.1, SVG Export Plug-In . SVG Version: 6.00 Build 0)  -->
<svg version="1.1" id="Layer_1" xmlns="http://www.w3.org/2000/svg" xmlns:xlink="http://www.w3.org/1999/xlink" x="0px" y="0px"
	 viewBox="0 0 70 70" style="enable-background:new 0 0 70 70;" xml:space="preserve">
<style type="text/css">
	.st0{fill:#083530;}
</style>
<g>
	<path class="st0" d="M50,55.4H20c-1.4,0-2.5-1.1-2.5-2.5s1.1-2.5,2.5-2.5h30c1.4,0,2.5,1.1,2.5,2.5S51.4,55.4,50,55.4z"/>
	<path class="st0" d="M50,19.6H20c-1.4,0-2.5-1.1-2.5-2.5s1.1-2.5,2.5-2.5h30c1.4,0,2.5,1.1,2.5,2.5S51.4,19.6,50,19.6z"/>
	<path class="st0" d="M48,37.5H22c-1.4,0-2.5-1.1-2.5-2.5s1.1-2.5,2.5-2.5h26c1.4,0,2.5,1.1,2.5,2.5S49.4,37.5,48,37.5z"/>
</g>
</svg>
