<?xml version="1.0" encoding="utf-8"?>
<!-- Generator: Adobe Illustrator 25.2.1, SVG Export Plug-In . SVG Version: 6.00 Build 0)  -->
<svg version="1.1" id="Layer_1" xmlns="http://www.w3.org/2000/svg" xmlns:xlink="http://www.w3.org/1999/xlink" x="0px" y="0px"
	 viewBox="0 0 100 100" style="enable-background:new 0 0 100 100;" xml:space="preserve">
<style type="text/css">
	.st0{fill:#242610;}
</style>
<path class="st0" d="M10,42.2c2.8,2.8,5.5,5.6,8.3,8.3c1.4,1.4,2.8,1.4,4.3-0.1c8-8,16-16,24-24c1.5-1.5,1.5-2.9,0.1-4.3
	c-2.8-2.8-5.6-5.5-8.4-8.3c-0.5,0-1.1,0-1.6,0c-0.7,0.6-1.4,1.1-2,1.7C27,23.1,19.4,30.8,11.8,38.4c-0.6,0.6-1.1,1.3-1.7,2
	C10,41.1,10,41.7,10,42.2z"/>
<g>
	<path class="st0" d="M25.6,75.2c-0.8,0.8-1.4,1.7-2.1,2.6c0,0.7,0,1.4,0.1,1.9c2.1,2,4.3,4.1,6.4,6.1c0.5,0,1,0,1.5,0
		c0.9-0.7,1.9-1.4,2.7-2.3c5.3-5.8,14.7-15.9,21-22.7c-2.5-2.5-5.1-5.2-7.4-7.6C40.1,60.9,31.8,69.2,25.6,75.2z"/>
	<path class="st0" d="M57.6,58.2c3.5-3.8,6.9-7.7,10.5-11.6c-2.4-2.1-4.7-4.2-7-6.4c0,0.1-0.4,0.4-0.7,0.7c-3,2.9-6.5,6.4-10.2,10
		c2.3,2.4,4.8,5,7.2,7.5C57.5,58.3,57.5,58.3,57.6,58.2z"/>
	<path class="st0" d="M88.4,42.3c-0.7-0.4-1.7-0.7-2.5-0.6c-2,0.3-3.4-0.4-4.1-2.2c-0.1-0.3-0.2-0.7-0.2-1c0.3-3-1.2-5.1-3.4-6.9
		c-1.2-1-2.2-2.1-3.3-3.2c-3.3-3.2-7.2-5-11.7-5.5c-0.4-0.1-0.8-0.2-1.2-0.3c-1.3,0-2.7,0-4,0c-2.6,0.4-5.1,0.9-7.6,1.3
		c0,0.9,0,1.5,0,2.2c0.6,0.1,1.2,0.1,1.8,0.2c4.6,0.6,8.8,2.2,12.2,5.4c1.7,1.6,1.7,3.3,0.2,5c-0.6,0.6-1.1,1.2-1.5,1.6
		c2.2,2.3,4.4,4.5,6.8,7c0.4-0.6,0.8-1.1,1.2-1.6c1.2-1.4,2.7-1.6,4.3-0.9c1.8,0.8,3.3,2,3.8,4.1c0,0.2,0,0.5-0.1,0.6
		c-1.2,1.8,0,2.9,1.1,4.1c1.5,1.6,2.8,1.7,4.4,0.1c1.8-1.9,3.6-3.7,5.4-5.6c0-0.6,0-1.2,0.2-1.8C89.6,43.6,89.1,42.8,88.4,42.3z"/>
	<path class="st0" d="M43.8,44.2C41.5,42,39,42,36.7,44.1c-4.9,4.4-9.9,8.8-14.7,13.3c-1.2,1.1-2.1,1.1-3.2-0.1
		c-1.3-1.4-2.7-2.8-4.2-4.2c-1.1-1.1-1.8-2.1-0.4-3.6c-0.8-0.7-1.5-1.3-2.5-2.1c-0.6,0.9-1.1,1.8-1.7,2.6c0,0.9,0,1.6,0,2.4
		c2.6,2.8,5,5.7,7.7,8.3c1.6,1.5,4.1,1.2,5.8-0.4c5-4.5,10-9,15-13.5c1.2-1.1,2.1-1.1,3.2,0.1c0.3,0.4,2.9,3,6.2,6.4
		c0.8-0.8,1.6-1.6,2.4-2.4C46.8,47.4,44.1,44.5,43.8,44.2z"/>
	<path class="st0" d="M78.6,75.3c-1.2-0.2-2.3-1-3.2-1.8c-2.1-1.9-4.1-4-6.1-6c-0.8-0.8-1.6-1.3-2.8-0.7c-0.3,0.1-0.9-0.1-1.2-0.3
		c-0.4-0.4-3.8-3.9-7.9-8.1c-0.7,0.7-1.4,1.6-2.2,2.4c4.3,4.4,8,8.2,8.5,8.7c-1.3,1.6-0.8,2.6,0.3,3.7c3.5,3.4,6.9,6.9,10.4,10.3
		c0.8,0.7,1.7,1.3,2.6,1.9c0.7,0,1.3,0,2,0c2-0.9,3.4-2.3,4.3-4.3c0-0.7,0-1.3,0-2C82.4,77,80.9,75.8,78.6,75.3z"/>
</g>
</svg>
