<?xml version="1.0" encoding="utf-8"?>
<!-- Generator: Adobe Illustrator 25.2.1, SVG Export Plug-In . SVG Version: 6.00 Build 0)  -->
<svg version="1.1" id="Layer_1" xmlns="http://www.w3.org/2000/svg" xmlns:xlink="http://www.w3.org/1999/xlink" x="0px" y="0px"
	 viewBox="0 0 100 100" style="enable-background:new 0 0 100 100;" xml:space="preserve">
<style type="text/css">
	.st0{fill:#242610;}
</style>
<g>
	<path class="st0" d="M72.3,76H27.7c-1.3,0-2.3-1-2.3-2.3V46.2L50,33.3l24.6,12.9v27.5C74.6,75,73.6,76,72.3,76z"/>
	<path class="st0" d="M80,45.7l-0.1-8.8c0-0.3-0.2-0.5-0.4-0.7L50,20.8l0,0l0,0L20.5,36.2c-0.2,0.2-0.5,0.4-0.5,0.7v8.8
		c0,0.6,0.6,1,1.1,0.7l28.9-15l28.9,15.1C79.4,46.6,80,46.3,80,45.7z"/>
</g>
<path class="st0" d="M50,97C24.1,97,3,75.9,3,50S24.1,3,50,3s47,21.1,47,47S75.9,97,50,97z M50,7C26.3,7,7,26.3,7,50
	c0,23.7,19.3,43,43,43c23.7,0,43-19.3,43-43C93,26.3,73.7,7,50,7z"/>
</svg>
