<svg id="Layer_1" data-name="Layer 1" xmlns="http://www.w3.org/2000/svg" viewBox="0 0 174.86 87.52"><defs><style>.cls-1{fill:#fff;}</style></defs><path class="cls-1" d="M806.07,303.6,806,270l-16.48,27.68h-5.84l-16.4-27V303.6H755.11v-56h10.72l21,34.8,20.64-34.8h10.64l.16,56Z" transform="translate(-754.17 -246.64)"/><path class="cls-1" d="M827.43,282.08c0-13,10-22.16,24-22.16,9,0,16.16,3.92,19.28,11l-9.68,5.2c-2.32-4.08-5.76-5.92-9.68-5.92-6.32,0-11.28,4.4-11.28,11.92S845,294,851.35,294a10.59,10.59,0,0,0,9.68-5.92l9.68,5.28c-3.12,6.88-10.24,10.88-19.28,10.88C837.43,304.24,827.43,295,827.43,282.08Z" transform="translate(-754.17 -246.64)"/><path class="cls-1" d="M916.15,274.72H928v22.72c-6.16,4.64-14.64,7.12-22.64,7.12-17.6,0-30.56-12.08-30.56-29s13-29,30.8-29c9.84,0,18,3.36,23.44,9.68L920.71,264a19,19,0,0,0-14.48-6.32c-10.88,0-18.32,7.28-18.32,17.92,0,10.48,7.44,17.92,18.16,17.92a20.57,20.57,0,0,0,10.08-2.4Z" transform="translate(-754.17 -246.64)"/><path class="cls-1" d="M770.22,329.08c0,3-2.4,4.78-7,4.78h-9.05v-17.5h8.55c4.37,0,6.62,1.82,6.62,4.55a4.21,4.21,0,0,1-2.32,3.85A4.31,4.31,0,0,1,770.22,329.08Zm-12-9.67v4.12h4c2,0,3-.7,3-2.07s-1.08-2-3-2Zm7.95,9.25c0-1.48-1.12-2.18-3.22-2.18h-4.73v4.33h4.73C765,330.81,766.14,330.16,766.14,328.66Z" transform="translate(-754.17 -246.64)"/><path class="cls-1" d="M779.39,326.16v-9.8h4.05V326c0,3.32,1.45,4.7,3.9,4.7s3.9-1.38,3.9-4.7v-9.65h4v9.8c0,5.15-3,8-7.92,8S779.39,331.31,779.39,326.16Z" transform="translate(-754.17 -246.64)"/><path class="cls-1" d="M805.5,316.36h4v17.5h-4Z" transform="translate(-754.17 -246.64)"/><path class="cls-1" d="M819.94,316.36h4v14.2h8.78v3.3H819.94Z" transform="translate(-754.17 -246.64)"/><path class="cls-1" d="M841.29,316.36h8c5.73,0,9.65,3.45,9.65,8.75s-3.92,8.75-9.65,8.75h-8ZM849,330.53c3.48,0,5.75-2.07,5.75-5.42s-2.27-5.43-5.75-5.43h-3.7v10.85Z" transform="translate(-754.17 -246.64)"/><path class="cls-1" d="M881.74,330.61v3.25H868.19v-17.5h13.23v3.25h-9.2v3.8h8.12v3.15h-8.12v4.05Z" transform="translate(-754.17 -246.64)"/><path class="cls-1" d="M902.37,333.86,899,329h-3.72v4.88h-4v-17.5h7.57c4.68,0,7.6,2.42,7.6,6.35a5.68,5.68,0,0,1-3.6,5.52l3.92,5.63Zm-3.8-14.2h-3.3v6.1h3.3c2.47,0,3.72-1.15,3.72-3.05S901,319.66,898.57,319.66Z" transform="translate(-754.17 -246.64)"/><path class="cls-1" d="M914.47,332.13l1.37-3.05a10.29,10.29,0,0,0,5.78,1.83c2.4,0,3.37-.8,3.37-1.88,0-3.27-10.17-1-10.17-7.52,0-3,2.4-5.45,7.37-5.45a11.66,11.66,0,0,1,6.07,1.55L927,320.68a9.94,9.94,0,0,0-4.85-1.37c-2.4,0-3.33.9-3.33,2,0,3.22,10.17,1,10.17,7.42,0,2.93-2.42,5.43-7.42,5.43A12.47,12.47,0,0,1,914.47,332.13Z" transform="translate(-754.17 -246.64)"/></svg>