<?xml version="1.0" encoding="utf-8"?>
<!-- Generator: Adobe Illustrator 25.2.1, SVG Export Plug-In . SVG Version: 6.00 Build 0)  -->
<svg version="1.1" id="Layer_1" xmlns="http://www.w3.org/2000/svg" xmlns:xlink="http://www.w3.org/1999/xlink" x="0px" y="0px"
	 viewBox="0 0 100 100" style="enable-background:new 0 0 100 100;" xml:space="preserve">
<style type="text/css">
	.st0{fill:#FFFFFF;}
</style>
<g>
	<path d="M79.7,86.8H20.3c-1.7,0-3.1-1.4-3.1-3.1V47L50,29.8L82.8,47v36.7C82.8,85.4,81.4,86.8,79.7,86.8z"/>
	<path d="M90,46.3l-0.1-11.7c0-0.4-0.2-0.7-0.6-0.9L50,13.2l0,0l0,0L10.6,33.7c-0.3,0.2-0.6,0.5-0.6,0.9L10,46.3
		c0,0.8,0.8,1.3,1.5,0.9L50,27.2l38.5,20.1C89.2,47.6,90,47.1,90,46.3z"/>
</g>
<g>
	<path class="st0" d="M65.9,71.9c-2.7-3.3-5.3-6.4-8.1-9.7c1.9,0,3.5,0,5,0c0.7-3.9-2.2-9.1-6.4-11.5c-5.3-3.1-10.7-2.1-16.8,3
		c-1.1-1.4-2.3-2.8-3.4-4.1c4-5.1,12-7.4,18.8-5.5C63,46.3,67.8,52.5,68.8,62c1.6,0,3.2,0,5.3,0C71.3,65.5,68.7,68.6,65.9,71.9z"/>
	<path class="st0" d="M60.2,70.6c1.2,1.4,2.3,2.8,3.4,4.1c-3.6,4.9-11.8,7.4-18.6,5.5c-6.2-1.7-13.3-7.3-13.9-18c-1.6,0-3.2,0-5.3,0
		c2.9-3.5,5.4-6.6,8.2-9.9c2.7,3.2,5.3,6.3,8.1,9.7c-1.9,0-3.5,0-5.1,0c-0.6,4.1,2.4,9.2,6.6,11.5C49.1,76.6,54.6,75.6,60.2,70.6z"
		/>
</g>
</svg>
