<?xml version="1.0" encoding="utf-8"?>
<!-- Generator: Adobe Illustrator 25.2.3, SVG Export Plug-In . SVG Version: 6.00 Build 0)  -->
<svg version="1.1" xmlns="http://www.w3.org/2000/svg" xmlns:xlink="http://www.w3.org/1999/xlink" x="0px" y="0px"
	 viewBox="0 0 458.62 544.83" style="enable-background:new 0 0 458.62 544.83;" xml:space="preserve">
<style type="text/css">
	.st0{fill:#FFFFFF;stroke:#FBFAF8;stroke-miterlimit:10;}
	.st1{fill:#FAC9B8;stroke:#FBFAF8;stroke-miterlimit:10;}
	.st2{fill:#FBFAF8;stroke:#FBFAF8;stroke-miterlimit:10;}
	.st3{opacity:0.2;}
	.st4{fill:#032026;stroke:#FBFAF8;stroke-miterlimit:10;}
</style>
<g id="bg">
</g>
<g id="work">
	<g>
		<path class="st0" d="M225.4,515.7C148.41,474.3,26.44,368.21,26.44,253.91V94.59c0-0.8,0.61-1.5,1.49-1.7
			c11.05-2.51,80.53-18.46,103.51-26.81c23.23-8.44,85.31-40.52,93.99-45.02c0.63-0.32,1.39-0.32,2.02,0
			c8.68,4.5,70.76,36.58,93.99,45.02c22.98,8.35,92.46,24.3,103.51,26.81c0.88,0.2,1.49,0.9,1.49,1.7v159.33
			c0,114.3-121.97,220.39-198.96,261.79C226.84,516.05,226.04,516.05,225.4,515.7z"/>
	</g>
	<g>
		<path class="st1" d="M226.44,485.35c-71.21-43.1-170-135.69-170-231.01V113.89c27.24-6.42,68.3-16.5,86.49-23.11
			c19.31-7.02,59.57-27.12,83.51-39.34c23.94,12.22,64.2,32.32,83.5,39.33c18.2,6.61,59.24,16.7,86.5,23.12v140.45
			C396.44,349.65,297.65,442.25,226.44,485.35z"/>
	</g>
	<g>
		<path class="st2" d="M226.44,524.73c-2.19,0-4.38-0.53-6.33-1.6c-45.76-24.61-94.76-64.12-131-105.67
			C41.56,362.96,16.44,306.41,16.44,253.9V94.58c0-4.78,3.69-8.97,8.96-10.17c8.08-1.84,79.45-18.16,102.21-26.43
			c22.72-8.26,85.63-40.78,92.73-44.46c3.78-1.94,8.43-1.94,12.18-0.01c7.13,3.7,70.05,36.23,92.76,44.48
			c22.75,8.26,94.13,24.59,102.19,26.42c5.29,1.21,8.98,5.39,8.98,10.18V253.9c0,52.5-25.13,109.06-72.66,163.55
			c-36.24,41.55-85.24,81.06-131.06,105.71C230.77,524.2,228.6,524.73,226.44,524.73z M230.54,508.18c0.03,0.02,0.06,0.03,0.09,0.05
			C230.6,508.21,230.57,508.2,230.54,508.18z M36.44,99.98V253.9c0,61.43,37.28,117.06,68.55,152.91
			c33.72,38.66,78.82,75.42,121.45,99.12c42.62-23.7,87.72-60.46,121.45-99.12c31.27-35.85,68.55-91.48,68.55-152.91V99.98
			c-21.3-4.91-77.82-18.19-98.83-25.82c-21.45-7.8-73.37-34.28-91.17-43.46c-17.76,9.16-69.69,35.65-91.17,43.46
			C114.26,81.79,57.76,95.07,36.44,99.98z"/>
	</g>
	<g>
		<g>
			<g>
				<path class="st0" d="M228.47,147.85h-4.06c-35.47,0-64.3,28.83-64.3,64.29v41.84h132.66v-41.84
					C292.77,176.68,263.94,147.85,228.47,147.85z M275.08,236.29H177.8v-24.15c0-25.69,20.91-46.6,46.61-46.6h4.06
					c25.7,0,46.61,20.91,46.61,46.6V236.29z"/>
			</g>
			<g>
				<path class="st0" d="M293.28,388.93H159.6c-14.31,0-26.02-11.72-26.02-26.02V262.39c0-14.31,11.72-26.02,26.02-26.02h133.68
					c14.31,0,26.02,11.72,26.02,26.02V362.9C319.3,377.21,307.58,388.93,293.28,388.93z"/>
			</g>
		</g>
		<g>
			<path class="st1" d="M246.34,293.33c0,6.96-3.58,13.11-9.02,16.65c-1.26,0.82-2.03,2.21-2.03,3.71v32.7
				c0,2.43-1.99,4.42-4.42,4.42h-8.84c-2.43,0-4.42-1.99-4.42-4.42v-32.7c0-1.5-0.75-2.87-2.01-3.69
				c-5.44-3.54-9.04-9.68-9.04-16.67c0-11.17,9.2-20.19,20.45-19.9C237.6,273.71,246.34,282.71,246.34,293.33z"/>
		</g>
	</g>
	<g>
		<path class="st0" d="M62.69,187.35v-68c0,0,37-9,44-13c0,0-20,14-32,18L62.69,187.35z"/>
	</g>
	<g>
		<path class="st0" d="M216.44,469.15c0,0-56-36.79-67-55.18c0,0,25,21.9,34,25.4C192.44,442.87,216.44,469.15,216.44,469.15z"/>
	</g>
	<g class="st3">
		<path class="st4" d="M426.44,94.59v159.33c0,114.3-121.97,220.39-198.96,261.79c-0.32,0.18-0.68,0.26-1.04,0.26V20.82
			c0.35,0,0.7,0.09,1.01,0.25c8.68,4.5,70.76,36.58,93.99,45.02c22.98,8.35,92.46,24.3,103.51,26.81
			C425.83,93.09,426.44,93.79,426.44,94.59z"/>
	</g>
</g>
</svg>
