<?xml version="1.0" encoding="utf-8"?>
<!-- Generator: Adobe Illustrator 25.2.3, SVG Export Plug-In . SVG Version: 6.00 Build 0)  -->
<svg version="1.1" id="Layer_1" xmlns="http://www.w3.org/2000/svg" xmlns:xlink="http://www.w3.org/1999/xlink" x="0px" y="0px"
	 viewBox="0 0 200 140" style="enable-background:new 0 0 200 140;" xml:space="preserve">
<style type="text/css">
	.st0{fill:#17BEBB;}
	.st1{fill:none;stroke:#231F20;stroke-width:3.5;stroke-miterlimit:10;}
</style>
<g>
	<g>
		<path class="st0" d="M36.9,107.3H25.5v9.9h13.1v1.7H23.4V94.6h15.1v1.7h-13v9.2h11.4C36.9,105.6,36.9,107.3,36.9,107.3z"/>
		<path class="st0" d="M48.2,116.1l5.3-15.2h2.2L48,122.1l-0.4,0.9c-1,2.2-2.5,3.3-4.6,3.3c-0.5,0-1-0.1-1.5-0.2v-1.7l1,0.1
			c1,0,1.8-0.2,2.4-0.7c0.6-0.5,1.1-1.3,1.5-2.5l0.9-2.4l-6.8-18h2.2L48.2,116.1z"/>
		<path class="st0" d="M65.8,119.3c-1.5,0-2.9-0.4-4.2-1.1s-2.2-1.8-2.9-3.2c-0.7-1.4-1-2.9-1-4.6v-0.7c0-1.7,0.3-3.3,1-4.7
			c0.7-1.4,1.6-2.5,2.8-3.3s2.5-1.2,3.9-1.2c2.2,0,3.9,0.8,5.2,2.2s1.9,3.6,1.9,6.2v1.1H59.6v0.4c0,2.1,0.6,3.8,1.8,5.1
			c1.2,1.4,2.7,2.1,4.5,2.1c1.1,0,2-0.2,2.8-0.6s1.6-1,2.2-1.9l1.3,1C70.7,118.3,68.6,119.3,65.8,119.3z M65.4,102.3
			c-1.5,0-2.8,0.6-3.8,1.7s-1.7,2.6-1.9,4.5h10.9v-0.2c-0.1-1.7-0.6-3.2-1.5-4.3C68.2,102.8,66.9,102.3,65.4,102.3z"/>
		<path class="st0" d="M102.6,111.4c-0.3,2.6-1.2,4.5-2.8,5.9c-1.6,1.4-3.6,2-6.2,2c-1.8,0-3.4-0.4-4.8-1.4
			c-1.4-0.9-2.5-2.2-3.2-3.8c-0.8-1.7-1.1-3.6-1.2-5.7v-3.2c0-2.2,0.4-4.1,1.1-5.8c0.8-1.7,1.8-3,3.3-3.9c1.4-0.9,3.1-1.4,4.9-1.4
			c2.6,0,4.7,0.7,6.2,2.1s2.4,3.4,2.6,5.8h-2.1c-0.5-4.1-2.8-6.2-6.8-6.2c-2.2,0-4,0.8-5.3,2.5s-2,3.9-2,6.9v3
			c0,2.8,0.6,5.1,1.9,6.7s3,2.5,5.2,2.5s3.8-0.5,4.9-1.6c1.1-1,1.8-2.6,2-4.7L102.6,111.4L102.6,111.4z"/>
		<path class="st0" d="M118.5,119c-0.2-0.6-0.3-1.4-0.4-2.5c-0.7,0.9-1.6,1.6-2.7,2.1s-2.2,0.8-3.5,0.8c-1.7,0-3.2-0.5-4.2-1.5
			s-1.6-2.2-1.6-3.7c0-1.8,0.7-3.2,2.2-4.2s3.5-1.5,6.1-1.5h3.6v-2.1c0-1.3-0.4-2.3-1.2-3.1c-0.8-0.7-2-1.1-3.5-1.1
			c-1.4,0-2.6,0.4-3.5,1.1s-1.4,1.6-1.4,2.6h-2c0-1.4,0.7-2.7,2-3.7c1.3-1.1,3-1.6,4.9-1.6c2,0,3.6,0.5,4.8,1.5
			c1.2,1,1.8,2.4,1.8,4.2v8.6c0,1.8,0.2,3.1,0.6,3.9v0.2L118.5,119L118.5,119z M112.2,117.6c1.3,0,2.5-0.3,3.6-1s1.8-1.5,2.3-2.6v-4
			h-3.6c-2,0-3.6,0.4-4.7,1.1s-1.7,1.7-1.7,2.9c0,1,0.4,1.9,1.1,2.5C110.1,117.2,111,117.6,112.2,117.6z"/>
		<path class="st0" d="M127.4,100.9l0.1,3.1c0.7-1.1,1.5-2,2.5-2.6s2.1-0.9,3.4-0.9c1.9,0,3.4,0.6,4.3,1.6s1.4,2.7,1.4,4.9v12h-2
			v-11.9c0-1.6-0.4-2.8-1-3.6s-1.8-1.2-3.2-1.2c-1.2,0-2.3,0.4-3.3,1.2c-1,0.8-1.7,1.8-2.1,3.1V119h-2v-18.1H127.4L127.4,100.9z"/>
		<path class="st0" d="M143.5,109.8c0-2.8,0.6-5.1,1.9-6.7c1.3-1.7,3-2.5,5.1-2.5c2.4,0,4.3,1,5.6,2.9V93.3h2V119h-1.9l-0.1-2.4
			c-1.3,1.8-3.2,2.8-5.7,2.8c-2.1,0-3.8-0.8-5.1-2.5s-1.9-3.9-1.9-6.8L143.5,109.8L143.5,109.8z M145.6,110.1c0,2.3,0.5,4.1,1.4,5.5
			s2.2,2,3.9,2c2.5,0,4.2-1.1,5.3-3.3v-8.5c-1-2.4-2.8-3.5-5.2-3.5c-1.7,0-3,0.7-3.9,2C146,105.6,145.6,107.6,145.6,110.1z"/>
		<path class="st0" d="M169.1,116.1l5.3-15.2h2.2l-7.7,21.2l-0.4,0.9c-1,2.2-2.5,3.3-4.6,3.3c-0.5,0-1-0.1-1.5-0.2v-1.7l1,0.1
			c1,0,1.8-0.2,2.4-0.7c0.6-0.5,1.1-1.3,1.6-2.5l0.9-2.4l-6.8-18h2.2L169.1,116.1z"/>
	</g>
	<g>
		<path d="M60.3,122.6c0.4-0.4,0.8-0.6,1.4-0.6c0.8,0,1.3,0.2,1.7,0.8c0.2,0.3,0.3,0.6,0.3,0.9h-1c-0.1-0.2-0.1-0.4-0.2-0.5
			c-0.2-0.2-0.4-0.3-0.8-0.3c-0.3,0-0.6,0.1-0.8,0.4s-0.3,0.7-0.3,1.2s0.1,0.9,0.3,1.2s0.5,0.4,0.8,0.4s0.6-0.1,0.8-0.3
			c0.1-0.1,0.2-0.3,0.2-0.5h1c-0.1,0.5-0.3,0.9-0.6,1.2c-0.3,0.3-0.8,0.5-1.3,0.5c-0.7,0-1.2-0.2-1.5-0.6s-0.6-1-0.6-1.8
			C59.7,123.7,59.9,123.1,60.3,122.6z"/>
		<path d="M76.9,126.8h-1v-4.6h1V126.8z"/>
		<path d="M89.3,122.2h1l1.8,3.2v-3.2H93v4.6h-1l-1.9-3.3v3.3h-0.9C89.3,126.8,89.3,122.2,89.3,122.2z"/>
		<path d="M108.9,123h-2.4v1h2.2v0.8h-2.2v1.2h2.6v0.8h-3.5v-4.6h3.4L108.9,123L108.9,123z"/>
		<path d="M124.3,122.2h1.4v4.6h-0.9v-3.1c0-0.1,0-0.2,0-0.4c0-0.2,0-0.3,0-0.4l-0.9,3.9H123l-0.9-3.9c0,0.1,0,0.2,0,0.4
			s0,0.3,0,0.4v3.1h-0.9v-4.6h1.4l0.8,3.6L124.3,122.2z"/>
		<path d="M139.4,122.2h1.1l1.6,4.6h-1l-0.3-0.9h-1.7l-0.3,0.9h-1L139.4,122.2z M139.4,125h1.2l-0.6-1.8L139.4,125z"/>
		<path d="M155,125.3c0,0.2,0.1,0.4,0.2,0.5c0.2,0.2,0.4,0.3,0.8,0.3c0.2,0,0.4,0,0.6-0.1c0.3-0.1,0.4-0.3,0.4-0.5s-0.1-0.3-0.2-0.3
			c-0.1-0.1-0.4-0.2-0.6-0.2l-0.5-0.1c-0.5-0.1-0.8-0.2-1-0.3c-0.3-0.2-0.5-0.6-0.5-1s0.1-0.8,0.5-1c0.3-0.3,0.8-0.4,1.3-0.4
			s0.9,0.1,1.3,0.4c0.4,0.3,0.5,0.6,0.6,1.1H157c0-0.3-0.1-0.5-0.4-0.6c-0.1-0.1-0.4-0.1-0.6-0.1c-0.2,0-0.5,0.1-0.6,0.2
			s-0.2,0.2-0.2,0.4c0,0.2,0.1,0.3,0.2,0.4c0.1,0.1,0.3,0.1,0.6,0.2l0.8,0.2c0.4,0.1,0.6,0.2,0.8,0.3c0.3,0.2,0.4,0.5,0.4,0.9
			s-0.2,0.8-0.5,1.1c-0.3,0.3-0.8,0.4-1.4,0.4c-0.6,0-1.1-0.1-1.4-0.4c-0.4-0.3-0.5-0.7-0.5-1.1C154.1,125.4,155,125.4,155,125.3z"
			/>
	</g>
	<g>
		<path d="M138.9,29.3c-3.3,0-6.5-0.6-9.6-1.6c-3.7-1.2-7.3-2.8-10.8-4.5c-3.7-1.8-7.4-3.4-11.4-4.3c-2.3-0.5-4.6-0.9-6.9-1
			c-5-0.2-9.9,0.6-14.6,2.4c-4.2,1.5-7.9,3.8-11.4,6.6c-4,3.3-7.2,7.2-9.6,11.8c-0.2,0.3-0.3,0.5-0.4,0.8c-0.1,0.1-0.1,0.2,0,0.3
			s0.2,0,0.3-0.1c0.7-0.6,1.3-1.2,2-1.7c4.1-3.4,8.5-6.3,13.2-8.6c1.2-0.6,2.4-1.1,3.6-1.6c0.1,0,0.2-0.1,0.4-0.1
			c-5,7.9-1.8,16.8,4.5,20.8c3.3,2.1,7.4,2.8,11.2,1.9c1.3-0.3,2.5-0.8,3.7-1.4c1.5-0.8,2.9-1.9,4.1-3.3c4.6-5.1,5.7-14.3-1.2-20.9
			c1.3,0.2,2.6,0.5,3.8,0.9c3,0.8,5.9,2.2,8.8,3.3c2.5,1,5.1,1.8,7.8,2.3c4.3,0.8,8.5,0.3,12.6-1.3c0.3-0.1,0.7-0.2,0.6-0.5
			C139.5,29.1,139.1,29.3,138.9,29.3z M88.8,43.5c-1.4,0.8-3.2,0.3-4-1.1c-0.8-1.4-0.3-3.2,1.1-4s3.2-0.3,4,1.1
			C90.7,40.9,90.2,42.7,88.8,43.5z M89.8,32.4c-0.8,1.4-2.6,1.9-4,1.1c-1.4-0.8-1.9-2.6-1.1-4s2.6-1.9,4-1.1
			C90.2,29.2,90.7,31,89.8,32.4z M96,48.9c-1.6,0-2.9-1.3-2.9-2.9s1.3-3,2.9-3s2.9,1.3,2.9,2.9C98.9,47.6,97.6,48.9,96,48.9z
			 M94.4,35.9c0-0.9,0.7-1.6,1.6-1.6s1.6,0.7,1.6,1.6s-0.7,1.6-1.6,1.6S94.4,36.8,94.4,35.9z M96,28.8c-1.6,0-2.9-1.3-2.9-2.9
			S94.4,23,96,23s2.9,1.3,2.9,2.9S97.6,28.8,96,28.8z M107.2,42.4c-0.8,1.4-2.6,1.9-4,1.1c-1.4-0.8-1.9-2.6-1.1-4s2.6-1.9,4-1.1
			C107.5,39.2,108,41,107.2,42.4z M107.2,29.4c0.8,1.4,0.3,3.2-1.1,4s-3.2,0.3-4-1.1c-0.8-1.4-0.3-3.2,1.1-4
			C104.6,27.5,106.4,28,107.2,29.4z"/>
		<g>
			<path d="M97.6,23.7c0.4,0.5,0.6,1,0.6,1.7c0,1.5-1.2,2.7-2.7,2.7c-0.6,0-1.2-0.2-1.7-0.6c0.5,0.6,1.2,1,2.1,1
				c1.5,0,2.7-1.2,2.7-2.7C98.6,24.9,98.2,24.2,97.6,23.7z"/>
			<path d="M96.8,34.8c0.2,0.2,0.3,0.6,0.3,0.9c0,0.8-0.6,1.4-1.4,1.4c-0.3,0-0.7-0.1-0.9-0.3c0.3,0.3,0.7,0.5,1.1,0.5
				c0.8,0,1.4-0.6,1.4-1.4C97.4,35.4,97.2,35,96.8,34.8z"/>
			<path d="M106.3,28.8c0.4,0.5,0.6,1,0.6,1.7c0,1.5-1.2,2.7-2.7,2.7c-0.6,0-1.2-0.2-1.7-0.6c0.5,0.6,1.2,1,2.1,1
				c1.5,0,2.7-1.2,2.7-2.7C107.3,30,106.9,29.3,106.3,28.8z"/>
			<path d="M106.3,38.9c0.4,0.5,0.6,1,0.6,1.7c0,1.5-1.2,2.7-2.7,2.7c-0.6,0-1.2-0.2-1.7-0.6c0.5,0.6,1.2,1,2.1,1
				c1.5,0,2.7-1.2,2.7-2.7C107.3,40.1,106.9,39.3,106.3,38.9z"/>
			<path d="M97.6,43.9c0.4,0.5,0.6,1,0.6,1.7c0,1.5-1.2,2.7-2.7,2.7c-0.6,0-1.2-0.2-1.7-0.6c0.5,0.6,1.2,1,2.1,1
				c1.5,0,2.7-1.2,2.7-2.7C98.6,45.1,98.2,44.3,97.6,43.9z"/>
			<path d="M89,38.9c0.4,0.5,0.6,1,0.6,1.7c0,1.5-1.2,2.7-2.7,2.7c-0.6,0-1.2-0.2-1.7-0.6c0.5,0.6,1.2,1,2.1,1
				c1.5,0,2.7-1.2,2.7-2.7C90,40.1,89.6,39.3,89,38.9z"/>
			<path d="M89,28.8c0.4,0.5,0.6,1,0.6,1.7c0,1.5-1.2,2.7-2.7,2.7c-0.6,0-1.2-0.2-1.7-0.6c0.5,0.6,1.2,1,2.1,1
				c1.5,0,2.7-1.2,2.7-2.7C90,30,89.6,29.3,89,28.8z"/>
		</g>
	</g>
	<g>
		<path class="st0" d="M111,47.7c2.6-1.2,5.1-2.5,7.5-4c3.2-2,6.3-4.4,9.2-6.8c1.3-1.1,2.6-2.2,4-3.2c0.2-0.2,0.5-0.3,0.4-0.6
			s-0.5-0.1-0.7-0.1c-1.8,0.2-3.6,0.5-5.4,0.7c-0.3,0-0.5,0.2-0.7,0.4c-2,2.6-4.3,5-6.9,7.1c-3.2,2.6-6.8,4.8-10.7,6.3
			c-1.5,0.6-3,1.1-4.6,1.5c-1.2,0.6-2.4,1.1-3.7,1.4C103.4,50.2,107.2,49.4,111,47.7z"/>
		<path class="st0" d="M64.4,31.3c0.5-0.4,0.7-0.8,1-1.2c3.7-4.6,8.3-8,13.7-10.5c3.6-1.7,7.4-2.8,11.3-3.5c2-0.4,4.1-0.6,6.1-0.7
			c2.1-0.1,4.2-0.1,6.4,0c4.2,0.3,8.4,1,12.4,2.3c5.1,1.6,9.8,3.8,14.2,6.8c0.9,0.6,1.7,1.2,2.5,1.8c0.1,0.1,0.2,0.2,0.4,0.2
			c0-0.2-0.1-0.2-0.2-0.3c-3.2-2.6-6.6-4.9-10.3-6.8c-4.6-2.4-9.5-4.2-14.6-5.2c-2.6-0.5-5.1-0.9-7.7-1c-6.6-0.4-12.8,0.9-18.8,3.6
			c-5.1,2.4-9.5,5.7-13.2,9.9c-1.1,1.3-2.2,2.7-3.1,4.1C64.5,31,64.4,31.1,64.4,31.3z"/>
		<path d="M98.2,60.3c-0.1,1.6-0.2,3.4-0.3,5.3c-0.2,5.6-0.3,11.2-0.4,16.8c-0.1,3.2,0,3.2-3.6,2.7c-0.3-8.2-0.5-16.4-0.8-24.5
			c-4.6,7.5-9.2,15.1-13.9,22.6c-1.5,2.4-1.7,2.5-4.8,1.9c1.1-2.1,2.1-4.1,3.2-6c3.9-7.3,7.8-14.7,11.9-21.9c0.5-1,1.8-1.5,2.9-2.3
			c-0.8,0-1.6,0-2.4,0c-1.3,0.1-1.4-0.7-1.4-1.7c0-1.1,0.3-1.5,1.4-1.5c3.6,0,7.3,0,10.9,0c0.8,0,1.8-0.3,1.8,1.1
			c0,1.1,0.3,2.4-1.9,2.2c5.5,10.2,10.8,20.1,16.1,30.1c-2.7,0.8-3.4,0.6-4.6-1.4C109.8,79.6,99.3,62.2,98.2,60.3z"/>
	</g>
	<path class="st1" d="M41.6,125.7"/>
</g>
</svg>
